<svg viewBox="0 0 1024 1024" xmlns="http://www.w3.org/2000/svg" id="图层_1"><defs><style>.cls-1{fill:#d6e8ff;}.cls-16,.cls-2{fill:#fff;}.cls-3{fill:#75a2fa;}.cls-4{fill:#7fa8f9;}.cls-5{fill:#fa6a85;}.cls-6{fill:#b2cdff;}.cls-20,.cls-7{fill:#84d4fd;}.cls-8{fill:#8bb1f9;}.cls-18,.cls-9{fill:#3a3a77;}.cls-10{fill:#a4c0ff;}.cls-11{fill:#99c0ff;}.cls-12{fill:#d2e1eb;}.cls-13{fill:#e0eaff;}.cls-13,.cls-14,.cls-15,.cls-16,.cls-17,.cls-18,.cls-19,.cls-20,.cls-21,.cls-22,.cls-23,.cls-24,.cls-25,.cls-26,.cls-28,.cls-29{fill-rule:evenodd;}.cls-14{fill:#204889;}.cls-15{fill:#3b82f4;}.cls-17{fill:#74bff2;}.cls-19{fill:#5d83ff;}.cls-21{fill:#f0f2ff;}.cls-22{fill:#babfd8;}.cls-23{fill:#ffc53d;}.cls-24{fill:#ff7946;}.cls-25{fill:#367cff;}.cls-26{fill:#e6f4ef;}.cls-27{isolation:isolate;}.cls-28{fill:#f3f7ff;}.cls-29{fill:#8ec8ef;}.cls-30{fill:#e4edf3;}</style></defs><path d="M942.15,544.5H663.35a20.57,20.57,0,0,1-20.6-20.6V137.2a20.57,20.57,0,0,1,20.6-20.6h278.8a20.57,20.57,0,0,1,20.6,20.6V523.9A20.57,20.57,0,0,1,942.15,544.5Z" class="cls-1"></path><rect height="383" width="271.4" y="140.48" x="667.11" class="cls-2"></rect><rect height="18.9" width="271.5" y="140.2" x="667.15" class="cls-3"></rect><rect height="2.3" width="10.6" y="150.8" x="892.45" class="cls-2"></rect><polygon points="916.15 154.3 908.65 146.8 910.25 145.2 917.85 152.6 916.15 154.3" class="cls-2"></polygon><polygon points="908.65 152.6 916.15 145.2 917.85 146.8 910.25 154.3 908.65 152.6" class="cls-2"></polygon><path d="M922.15,144.7v9.6h9.7v-9.6Zm7.8,7.7h-5.9v-5.9H930Z" class="cls-2"></path><circle r="3" cy="149.8" cx="701.25" class="cls-2"></circle><circle r="3" cy="149.8" cx="688.65" class="cls-2"></circle><circle r="3" cy="149.8" cx="676.15" class="cls-2"></circle><rect height="38.3" width="236.3" y="185.3" x="681.55" class="cls-4"></rect><rect height="38.3" width="36.5" y="185.3" x="881.45" class="cls-5"></rect><rect height="15.5" width="182.5" y="195.9" x="689.95" class="cls-2"></rect><path d="M764.35,330.7h-52.1a5.38,5.38,0,0,1-5.4-5.4V273.2a5.38,5.38,0,0,1,5.4-5.4h52.1a5.38,5.38,0,0,1,5.4,5.4v52.1A5.38,5.38,0,0,1,764.35,330.7Z" class="cls-6"></path><path d="M760.05,325.9H708a5.38,5.38,0,0,1-5.4-5.4V268.4A5.38,5.38,0,0,1,708,263h52.1a5.38,5.38,0,0,1,5.4,5.4v52.1A5.44,5.44,0,0,1,760.05,325.9Z" class="cls-7"></path><path d="M746,350.2h-39.5a2.69,2.69,0,0,1-2.7-2.7V344a2.69,2.69,0,0,1,2.7-2.7H746a2.69,2.69,0,0,1,2.7,2.7v3.5A2.69,2.69,0,0,1,746,350.2Z" class="cls-8"></path><path d="M764.45,370.6h-58a2.69,2.69,0,0,1-2.7-2.7v-3.4a2.69,2.69,0,0,1,2.7-2.7h58a2.69,2.69,0,0,1,2.7,2.7V368A2.61,2.61,0,0,1,764.45,370.6Z" class="cls-8"></path><path d="M764.45,391h-58a2.69,2.69,0,0,1-2.7-2.7v-3.5a2.69,2.69,0,0,1,2.7-2.7h58a2.69,2.69,0,0,1,2.7,2.7v3.5A2.63,2.63,0,0,1,764.45,391Z" class="cls-8"></path><path d="M892.55,330.7h-52.1a5.38,5.38,0,0,1-5.4-5.4V273.2a5.38,5.38,0,0,1,5.4-5.4h52.1a5.38,5.38,0,0,1,5.4,5.4v52.1A5.38,5.38,0,0,1,892.55,330.7Z" class="cls-6"></path><path d="M888.25,325.9h-52.1a5.38,5.38,0,0,1-5.4-5.4V268.4a5.38,5.38,0,0,1,5.4-5.4h52.1a5.38,5.38,0,0,1,5.4,5.4v52.1A5.44,5.44,0,0,1,888.25,325.9Z" class="cls-7"></path><path d="M874.15,350.2h-39.5a2.69,2.69,0,0,1-2.7-2.7V344a2.69,2.69,0,0,1,2.7-2.7h39.5a2.69,2.69,0,0,1,2.7,2.7v3.5A2.69,2.69,0,0,1,874.15,350.2Z" class="cls-8"></path><path d="M892.65,370.6h-58a2.69,2.69,0,0,1-2.7-2.7v-3.4a2.69,2.69,0,0,1,2.7-2.7h58a2.69,2.69,0,0,1,2.7,2.7V368A2.61,2.61,0,0,1,892.65,370.6Z" class="cls-8"></path><path d="M892.65,391h-58a2.69,2.69,0,0,1-2.7-2.7v-3.5a2.69,2.69,0,0,1,2.7-2.7h58a2.69,2.69,0,0,1,2.7,2.7v3.5A2.63,2.63,0,0,1,892.65,391Z" class="cls-8"></path><path d="M846.75,404.3H722.65c-4.1,0-7.5,3-7.5,6.7v58.7l14.5-15h117.1c4.1,0,7.5-3,7.5-6.7V411C854.25,407.3,851,404.3,846.75,404.3Z" class="cls-9"></path><path d="M757.85,423.8h-30.1a3.35,3.35,0,0,1-3.5-3.1v-2a3.35,3.35,0,0,1,3.5-3.1h30.1a3.35,3.35,0,0,1,3.5,3.1v2A3.22,3.22,0,0,1,757.85,423.8Z" class="cls-10"></path><path d="M838,440.5H728.75a3.35,3.35,0,0,1-3.5-3.1v-2a3.35,3.35,0,0,1,3.5-3.1H838a3.35,3.35,0,0,1,3.5,3.1v2A3.41,3.41,0,0,1,838,440.5Z" class="cls-11"></path><path d="M556.25,954h-70A20.31,20.31,0,0,1,466,933.7V899a20.31,20.31,0,0,1,20.3-20.3h70a20.31,20.31,0,0,1,20.3,20.3v34.7A20.31,20.31,0,0,1,556.25,954Z" class="cls-12"></path><g id="路径"><path d="M118.75,704.9h135.6l-12.5,81.4A15,15,0,0,0,257,801.4h232.7a15.59,15.59,0,0,0,12.5-6.6l2.6-8.5.2-134.4,43.9-85.7a240.38,240.38,0,0,0,23-32.7,199.51,199.51,0,0,0,13.4-27l2-5,1.8-5c2-5.9,2.8-7.9,2.8-7.9a238.08,238.08,0,0,0,12.1-75c0-131.2-105.7-237.5-236.9-238a238,238,0,0,0-238.9,238.1c0,11.2-17.8,212.5-24.1,272.8,0,0,.9,8.5,3.9,11.6C107.65,698.5,114.45,704.9,118.75,704.9Z" class="cls-13"></path></g><path d="M67.45,540.8H119l10.1-115.4L62.25,531.2a6.13,6.13,0,0,0-.2,6.4A5.68,5.68,0,0,0,67.45,540.8Z" class="cls-14"></path><g id="椭圆形"><path d="M485.25,463.8a118.4,118.4,0,1,0-118.4,118.4A118.39,118.39,0,0,0,485.25,463.8Z" class="cls-15"></path></g><path d="M458.35,464a92.1,92.1,0,1,0-92.1,92.1A92.06,92.06,0,0,0,458.35,464Z" class="cls-16"></path><path d="M127.15,354.9a2.9,2.9,0,0,0,.1,5.8h64.3a2.9,2.9,0,0,0-.1-5.8Z" class="cls-17"></path><path d="M188.75,358.6a18,18,0,1,0,18-18A18.05,18.05,0,0,0,188.75,358.6Zm5.7.2a12.1,12.1,0,1,0,12.1-12.1A12.08,12.08,0,0,0,194.45,358.8Z" class="cls-17"></path><path d="M107,595.9a2.88,2.88,0,0,0-2.8,2.9,2.84,2.84,0,0,0,2.9,2.9h64.3a2.88,2.88,0,0,0,2.8-2.9,2.84,2.84,0,0,0-2.9-2.9Z" class="cls-17"></path><path d="M166.85,598.3a18,18,0,1,0,18-18A18.05,18.05,0,0,0,166.85,598.3Zm5.9,0a12.1,12.1,0,1,0,12.1-12.1A12,12,0,0,0,172.75,598.3Z" class="cls-17"></path><path d="M513.85,301.8a2.88,2.88,0,0,0-2.8,2.9,2.84,2.84,0,0,0,2.9,2.9h64.4a2.88,2.88,0,0,0,2.8-2.9,2.84,2.84,0,0,0-2.9-2.9Z" class="cls-17"></path><path d="M481.15,305.7a18,18,0,1,0,18-18A18.05,18.05,0,0,0,481.15,305.7Zm5.9,0a12.1,12.1,0,1,0,12.1-12.1A11.89,11.89,0,0,0,487.05,305.7Z" class="cls-17"></path><g id="路径-2"><path d="M830.45,675.3c-7.1,0-22.2-15.6-22.2-22.7V608.9H637.75a8.28,8.28,0,0,0-8.3,8.3V855.6h152.3c0,25.6,21.9,43.6,47.5,43.3,25.1-.2,45.8-21.5,45.8-46.7v-177l-44.6.1Z" class="cls-18"></path></g><path d="M607.35,854.8c0,22.8,16.6,39.3,38.4,43.1l7.7.6,175.1-.3c-25.4,0-47-19.5-46.4-43.3l-174.8-.1Z" class="cls-19"></path><path d="M666.35,675.9h38.1a3.17,3.17,0,0,0,2.3-.9,3.34,3.34,0,0,0,.9-2.3V634.6a3.17,3.17,0,0,0-.9-2.3,3.34,3.34,0,0,0-2.3-.9h-38.1a3.17,3.17,0,0,0-2.3.9,3.34,3.34,0,0,0-.9,2.3v38.1a3.08,3.08,0,0,0,3.2,3.2Z" class="cls-20"></path><path d="M664.55,709h74c.8,0,1.5-1.5,1.5-3.3V701c0-1.8-.6-3.3-1.5-3.3h-74c-.5,0-.8.3-1.1.9a5.56,5.56,0,0,0-.5,2.3v4.7a5.21,5.21,0,0,0,.5,2.3C663.65,708.7,664.05,709,664.55,709Z" class="cls-20"></path><path d="M666.15,742.6h160.9a3.33,3.33,0,0,0,3.3-3.3v-4.7a3.33,3.33,0,0,0-3.3-3.3H666.15a3.17,3.17,0,0,0-2.3.9,3.34,3.34,0,0,0-.9,2.3v4.7a3.17,3.17,0,0,0,.9,2.3A3.11,3.11,0,0,0,666.15,742.6Z" class="cls-21"></path><path d="M666.15,776.3h160.9a3.33,3.33,0,0,0,3.3-3.3v-4.7a3.33,3.33,0,0,0-3.3-3.3H666.15a3.17,3.17,0,0,0-2.3.9,3.34,3.34,0,0,0-.9,2.3v4.7a3.17,3.17,0,0,0,.9,2.3A3.52,3.52,0,0,0,666.15,776.3Z" class="cls-21"></path><path d="M808.15,673.3a7.49,7.49,0,0,0,2.1,5,6.84,6.84,0,0,0,5.1,1.8l59.7-4.4-67-11.2.1,8.8Z" class="cls-22"></path><path d="M808.15,608.6l.2,64.1a2.9,2.9,0,0,0,2.9,2.9h64.1L843,642.2Z" class="cls-23"></path><path d="M368,852.7h-31.6a7.23,7.23,0,0,0-7.2,7.2v31.4a7.23,7.23,0,0,0,7.2,7.2H368a7.3,7.3,0,0,0,7.2-7.2V860.1A7.34,7.34,0,0,0,368,852.7Z" class="cls-24"></path><path d="M632.25,37.6h-26.7a6.19,6.19,0,0,0-6.1,6.1V70.4a6.19,6.19,0,0,0,6.1,6.1h26.7a6.19,6.19,0,0,0,6.1-6.1V43.7A6.19,6.19,0,0,0,632.25,37.6Z" class="cls-25"></path><path d="M853.45,418h-90.7c-7.5,0-13.8,5.6-13.8,12.2v53.7c0,6.9,6.2,12.4,13.8,12.4h90.7c7.5,0,13.8-5.6,13.8-12.4V430.2C867.15,423.5,861,418,853.45,418Z" class="cls-26"></path><g class="cls-27"><path d="M178.05,817.6a12.81,12.81,0,0,0,9.9-3.9,13.93,13.93,0,1,0-19.3-20.1,13,13,0,0,0-3.9,6.8l-.2-.2s-4,34.9-34.7,35.5l.2.4a14.13,14.13,0,0,0-14.2,13.6,14,14,0,0,0,27.9.7,13.68,13.68,0,0,0-.2-2.8C145,840.2,150.65,823.9,178.05,817.6Z" class="cls-28"></path></g><path d="M299.75,117.4a17.86,17.86,0,1,0,19.7-15.8A17.84,17.84,0,0,0,299.75,117.4Z" class="cls-24"></path><path d="M389.85,464a23.5,23.5,0,1,0-23.5,23.5A23.58,23.58,0,0,0,389.85,464ZM330,417.1a8.05,8.05,0,0,0-2.2,7.7l.6,1.8a20.2,20.2,0,0,1-2,14.2,19.24,19.24,0,0,1-11,8.8l-1.8.4a7.76,7.76,0,0,0-5.5,5.7,86.31,86.31,0,0,0,0,16.6,7.59,7.59,0,0,0,5.5,5.7l1.8.4a19,19,0,0,1,11,8.8,19.26,19.26,0,0,1,2,14.2l-.6,1.8c-.7,2.6.2,6.1,2.2,7.7a55.57,55.57,0,0,0,6.8,4.4,52.43,52.43,0,0,0,7.4,3.7,8.05,8.05,0,0,0,7.7-1.8l1.3-1.3a19.09,19.09,0,0,1,26.3,0l1.3,1.3c1.8,1.8,5.3,2.8,7.7,1.8a45.08,45.08,0,0,0,7.4-3.7,46.07,46.07,0,0,0,6.8-4.4,8.05,8.05,0,0,0,2.2-7.7l-.6-1.8a19.52,19.52,0,0,1,2-14,19.24,19.24,0,0,1,11-8.8l1.8-.4a7.71,7.71,0,0,0,5.5-5.9,86.31,86.31,0,0,0,0-16.6,7.93,7.93,0,0,0-5.5-5.7l-1.8-.4a19.65,19.65,0,0,1-11-8.8,20,20,0,0,1-2-14.2l.6-1.8c.7-2.6-.2-6.1-2.2-7.7a55.57,55.57,0,0,0-6.8-4.4,52.43,52.43,0,0,0-7.4-3.7,8.05,8.05,0,0,0-7.7,1.8l-1.3,1.5a19.24,19.24,0,0,1-13.1,5.1,18.6,18.6,0,0,1-13.2-5.3l-1.3-1.5c-1.8-1.8-5.3-2.8-7.7-1.8a45.08,45.08,0,0,0-7.4,3.7A68.44,68.44,0,0,0,330,417.1Z" class="cls-29"></path><path d="M218,175.5H91.25a16.09,16.09,0,0,1-16.1-16.1v-76a16.09,16.09,0,0,1,16.1-16.1H218a16.09,16.09,0,0,1,16.1,16.1v76.1A16.07,16.07,0,0,1,218,175.5Z" class="cls-12"></path><path d="M210.45,986.4h-112a12.93,12.93,0,0,1-12.9-12.9v-68a12.93,12.93,0,0,1,12.9-12.9h112a12.93,12.93,0,0,1,12.9,12.9v68A12.93,12.93,0,0,1,210.45,986.4Z" class="cls-30"></path></svg>